<?xml version="1.0"?>
<svg xmlns="http://www.w3.org/2000/svg" xmlns:xlink="http://www.w3.org/1999/xlink" xmlns:ev="http://www.w3.org/2001/xml-events" version="1.1" baseProfile="full" viewBox="13 13 154 142">
	<g>
		<g>
			<polygon points="129.5 29.5 129.204 33.354 127.425 32.7611 " stroke="#000000" stroke-width="1.000000px" fill="#000000" />
			<path fill="none" d=" M119,61 L129.5,29.5" stroke="#000000" stroke-width="1.000000px" />
		</g>
		<g>
			<polygon points="150.5 50.5 147.239 52.5752 146.646 50.7965 " stroke="#000000" stroke-width="1.000000px" fill="#000000" />
			<path fill="none" d=" M119,61 L150.5,50.5" stroke="#000000" stroke-width="1.000000px" />
		</g>
		<g>
			<polygon points="29.5 139.71 31.7708 136.582 32.9757 138.018 " stroke="#000000" stroke-width="1.000000px" fill="#000000" />
			<path fill="none" d=" M53,120 L29.5,139.71" stroke="#000000" stroke-width="1.000000px" />
		</g>
		<g>
			<polygon points="139.5 29.5 142.815 31.4887 141.489 32.8146 " stroke="#000000" stroke-width="1.000000px" fill="#000000" />
			<path fill="none" d=" M158,48 L139.5,29.5" stroke="#000000" stroke-width="1.000000px" />
		</g>
		<g>
			<polygon points="111.5 68.0312 109.405 71.28 108.123 69.9121 " stroke="#000000" stroke-width="1.000000px" fill="#000000" />
			<path fill="none" d=" M87,91 L111.5,68.0312" stroke="#000000" stroke-width="1.000000px" />
		</g>
		<g>
			<polygon points="60.5 113.603 62.7447 110.456 63.9615 111.883 " stroke="#000000" stroke-width="1.000000px" fill="#000000" />
			<path fill="none" d=" M87,91 L60.5,113.603" stroke="#000000" stroke-width="1.000000px" />
		</g>
		<g>
			<polygon points="102.833 119.5 100.193 116.677 101.832 115.767 " stroke="#000000" stroke-width="1.000000px" fill="#000000" />
			<path fill="none" d=" M87,91 L102.833,119.5" stroke="#000000" stroke-width="1.000000px" />
		</g>
		<g>
			<polygon points="62.5 71.8594 66.0323 73.4293 64.8779 74.9068 " stroke="#000000" stroke-width="1.000000px" fill="#000000" />
			<path fill="none" d=" M87,91 L62.5,71.8594" stroke="#000000" stroke-width="1.000000px" />
		</g>
	</g>
	<g>
		<ellipse cx="132" cy="22" rx="7.5" ry="7.5" fill="#FFDDAA" stroke-width="1.000000px" stroke="#000000" />
		<text x="132" y="22" text-anchor="middle" dominant-baseline="middle" font-family="Arial" font-size="10" fill="#000000">0</text>
	</g>
	<g>
		<ellipse cx="119" cy="61" rx="7.5" ry="7.5" fill="#FFDDAA" stroke-width="1.000000px" stroke="#000000" />
		<text x="119" y="61" text-anchor="middle" dominant-baseline="middle" font-family="Arial" font-size="10" fill="#000000">1</text>
	</g>
	<g>
		<ellipse cx="53" cy="120" rx="7.5" ry="7.5" fill="#FFDDAA" stroke-width="1.000000px" stroke="#000000" />
		<text x="53" y="120" text-anchor="middle" dominant-baseline="middle" font-family="Arial" font-size="10" fill="#000000">2</text>
	</g>
	<g>
		<ellipse cx="107" cy="127" rx="7.5" ry="7.5" fill="#FFDDAA" stroke-width="1.000000px" stroke="#000000" />
		<text x="107" y="127" text-anchor="middle" dominant-baseline="middle" font-family="Arial" font-size="10" fill="#000000">3</text>
	</g>
	<g>
		<ellipse cx="158" cy="48" rx="7.5" ry="7.5" fill="#FFDDAA" stroke-width="1.000000px" stroke="#000000" />
		<text x="158" y="48" text-anchor="middle" dominant-baseline="middle" font-family="Arial" font-size="10" fill="#000000">4</text>
	</g>
	<g>
		<ellipse cx="22" cy="146" rx="7.5" ry="7.5" fill="#FFDDAA" stroke-width="1.000000px" stroke="#000000" />
		<text x="22" y="146" text-anchor="middle" dominant-baseline="middle" font-family="Arial" font-size="10" fill="#000000">5</text>
	</g>
	<g>
		<ellipse cx="87" cy="91" rx="7.5" ry="7.5" fill="#FFDDAA" stroke-width="1.000000px" stroke="#000000" />
		<text x="87" y="91" text-anchor="middle" dominant-baseline="middle" font-family="Arial" font-size="10" fill="#000000">6</text>
	</g>
	<g>
		<ellipse cx="55" cy="66" rx="7.5" ry="7.5" fill="#FFDDAA" stroke-width="1.000000px" stroke="#000000" />
		<text x="55" y="66" text-anchor="middle" dominant-baseline="middle" font-family="Arial" font-size="10" fill="#000000">7</text>
	</g>
</svg>
