<?xml version="1.0"?>
<svg xmlns="http://www.w3.org/2000/svg" xmlns:xlink="http://www.w3.org/1999/xlink" xmlns:ev="http://www.w3.org/2001/xml-events" version="1.1" baseProfile="full" viewBox="13 13 156 153">
	<g>
		<g>
			<polygon points="152.5 55.9605 149.356 58.2094 148.668 56.4654 " stroke="#000000" stroke-width="1.000000px" fill="#000000" />
			<path fill="none" d=" M122,68 L152.5,55.9605" stroke="#000000" stroke-width="1.000000px" />
		</g>
		<g>
			<polygon points="129.5 65.0395 132.644 62.7906 133.332 64.5346 " stroke="#000000" stroke-width="1.000000px" fill="#000000" />
			<path fill="none" d=" M160,53 L129.5,65.0395" stroke="#000000" stroke-width="1.000000px" />
		</g>
		<g>
			<polygon points="89.5 76.9375 92.8672 75.0392 93.3644 76.8471 " stroke="#000000" stroke-width="1.000000px" fill="#000000" />
			<path fill="none" d=" M122,68 L89.5,76.9375" stroke="#000000" stroke-width="1.000000px" />
		</g>
		<g>
			<polygon points="114.5 70.0625 111.133 71.9608 110.636 70.1529 " stroke="#000000" stroke-width="1.000000px" fill="#000000" />
			<path fill="none" d=" M82,79 L114.5,70.0625" stroke="#000000" stroke-width="1.000000px" />
		</g>
		<g>
			<polygon points="56.9605 149.5 57.4654 145.668 59.2094 146.356 " stroke="#000000" stroke-width="1.000000px" fill="#000000" />
			<path fill="none" d=" M69,119 L56.9605,149.5" stroke="#000000" stroke-width="1.000000px" />
		</g>
		<g>
			<polygon points="66.0395 126.5 65.5346 130.332 63.7906 129.644 " stroke="#000000" stroke-width="1.000000px" fill="#000000" />
			<path fill="none" d=" M54,157 L66.0395,126.5" stroke="#000000" stroke-width="1.000000px" />
		</g>
		<g>
			<polygon points="79.5625 86.5 79.295 90.3561 77.5118 89.7766 " stroke="#000000" stroke-width="1.000000px" fill="#000000" />
			<path fill="none" d=" M69,119 L79.5625,86.5" stroke="#000000" stroke-width="1.000000px" />
		</g>
		<g>
			<polygon points="71.4375 111.5 71.705 107.644 73.4882 108.223 " stroke="#000000" stroke-width="1.000000px" fill="#000000" />
			<path fill="none" d=" M82,79 L71.4375,111.5" stroke="#000000" stroke-width="1.000000px" />
		</g>
		<g>
			<polygon points="29.5 28.9828 32.8834 30.8519 31.6058 32.2242 " stroke="#000000" stroke-width="1.000000px" fill="#000000" />
			<path fill="none" d=" M51,49 L29.5,28.9828" stroke="#000000" stroke-width="1.000000px" />
		</g>
		<g>
			<polygon points="43.5 42.0172 40.1166 40.1481 41.3942 38.7758 " stroke="#000000" stroke-width="1.000000px" fill="#000000" />
			<path fill="none" d=" M22,22 L43.5,42.0172" stroke="#000000" stroke-width="1.000000px" />
		</g>
		<g>
			<polygon points="74.5 71.7419 71.1533 69.8078 72.4572 68.4604 " stroke="#000000" stroke-width="1.000000px" fill="#000000" />
			<path fill="none" d=" M51,49 L74.5,71.7419" stroke="#000000" stroke-width="1.000000px" />
		</g>
		<g>
			<polygon points="58.5 56.2581 61.8467 58.1922 60.5428 59.5396 " stroke="#000000" stroke-width="1.000000px" fill="#000000" />
			<path fill="none" d=" M82,79 L58.5,56.2581" stroke="#000000" stroke-width="1.000000px" />
		</g>
	</g>
	<g>
		<ellipse cx="160" cy="53" rx="7.5" ry="7.5" fill="#FFDDAA" stroke-width="1.000000px" stroke="#000000" />
		<text x="160" y="53" text-anchor="middle" dominant-baseline="middle" font-family="Arial" font-size="10" fill="#000000">100</text>
	</g>
	<g>
		<ellipse cx="54" cy="157" rx="7.5" ry="7.5" fill="#FFDDAA" stroke-width="1.000000px" stroke="#000000" />
		<text x="54" y="157" text-anchor="middle" dominant-baseline="middle" font-family="Arial" font-size="10" fill="#000000">101</text>
	</g>
	<g>
		<ellipse cx="22" cy="22" rx="7.5" ry="7.5" fill="#FFDDAA" stroke-width="1.000000px" stroke="#000000" />
		<text x="22" y="22" text-anchor="middle" dominant-baseline="middle" font-family="Arial" font-size="10" fill="#000000">102</text>
	</g>
	<g>
		<ellipse cx="82" cy="79" rx="7.5" ry="7.5" fill="#FFDDAA" stroke-width="1.000000px" stroke="#000000" />
		<text x="82" y="79" text-anchor="middle" dominant-baseline="middle" font-family="Arial" font-size="10" fill="#000000">103</text>
	</g>
	<g>
		<ellipse cx="122" cy="68" rx="7.5" ry="7.5" fill="#FFDDAA" stroke-width="1.000000px" stroke="#000000" />
		<text x="122" y="68" text-anchor="middle" dominant-baseline="middle" font-family="Arial" font-size="10" fill="#000000">1</text>
	</g>
	<g>
		<ellipse cx="69" cy="119" rx="7.5" ry="7.5" fill="#FFDDAA" stroke-width="1.000000px" stroke="#000000" />
		<text x="69" y="119" text-anchor="middle" dominant-baseline="middle" font-family="Arial" font-size="10" fill="#000000">5</text>
	</g>
	<g>
		<ellipse cx="51" cy="49" rx="7.5" ry="7.5" fill="#FFDDAA" stroke-width="1.000000px" stroke="#000000" />
		<text x="51" y="49" text-anchor="middle" dominant-baseline="middle" font-family="Arial" font-size="10" fill="#000000">4</text>
	</g>
</svg>
