<?xml version="1.0"?>
<svg xmlns="http://www.w3.org/2000/svg" xmlns:xlink="http://www.w3.org/1999/xlink" xmlns:ev="http://www.w3.org/2001/xml-events" version="1.1" baseProfile="full" viewBox="13 13 168 166">
	<g>
		<g>
			<polygon points="78.5 124.286 81.176 121.496 82.1738 123.084 " stroke="#000000" stroke-width="1.000000px" fill="#000000" />
			<path fill="none" d=" M106,107 L78.5,124.286" stroke="#000000" stroke-width="1.000000px" />
		</g>
		<g>
			<polygon points="107.643 72.5 108.401 76.2903 106.528 76.2012 " stroke="#000000" stroke-width="1.000000px" fill="#000000" />
			<path fill="none" d=" M106,107 L107.643,72.5" stroke="#000000" stroke-width="1.000000px" />
		</g>
		<g>
			<polygon points="52.2941 155.5 53.6908 151.896 55.2226 152.977 " stroke="#000000" stroke-width="1.000000px" fill="#000000" />
			<path fill="none" d=" M71,129 L52.2941,155.5" stroke="#000000" stroke-width="1.000000px" />
		</g>
		<g>
			<polygon points="66.9737 74.5 67.0214 70.6349 68.8347 71.1121 " stroke="#000000" stroke-width="1.000000px" fill="#000000" />
			<path fill="none" d=" M75,44 L66.9737,74.5" stroke="#000000" stroke-width="1.000000px" />
		</g>
		<g>
			<polygon points="70.0426 121.5 68.6377 117.899 70.4976 117.661 " stroke="#000000" stroke-width="1.000000px" fill="#000000" />
			<path fill="none" d=" M65,82 L70.0426,121.5" stroke="#000000" stroke-width="1.000000px" />
		</g>
		<g>
			<polygon points="38.5 60.1765 41.9907 61.8367 40.7988 63.2841 " stroke="#000000" stroke-width="1.000000px" fill="#000000" />
			<path fill="none" d=" M65,82 L38.5,60.1765" stroke="#000000" stroke-width="1.000000px" />
		</g>
		<g>
			<polygon points="29.5 87.7791 33.0506 86.2512 33.3519 88.1019 " stroke="#000000" stroke-width="1.000000px" fill="#000000" />
			<path fill="none" d=" M65,82 L29.5,87.7791" stroke="#000000" stroke-width="1.000000px" />
		</g>
		<g>
			<polygon points="82.5 48.7727 86.1671 49.9951 85.1604 51.5769 " stroke="#000000" stroke-width="1.000000px" fill="#000000" />
			<path fill="none" d=" M108,65 L82.5,48.7727" stroke="#000000" stroke-width="1.000000px" />
		</g>
		<g>
			<polygon points="72.5 79.0349 75.6427 76.7843 76.332 78.528 " stroke="#000000" stroke-width="1.000000px" fill="#000000" />
			<path fill="none" d=" M108,65 L72.5,79.0349" stroke="#000000" stroke-width="1.000000px" />
		</g>
		<g>
			<polygon points="115.5 63.4659 118.986 61.7959 119.362 63.6329 " stroke="#000000" stroke-width="1.000000px" fill="#000000" />
			<path fill="none" d=" M152,56 L115.5,63.4659" stroke="#000000" stroke-width="1.000000px" />
		</g>
		<g>
			<polygon points="113.068 57.5 114.39 53.8679 115.944 54.9177 " stroke="#000000" stroke-width="1.000000px" fill="#000000" />
			<path fill="none" d=" M133,28 L113.068,57.5" stroke="#000000" stroke-width="1.000000px" />
		</g>
		<g>
			<polygon points="146.911 48.5 144.029 45.9234 145.581 44.8706 " stroke="#000000" stroke-width="1.000000px" fill="#000000" />
			<path fill="none" d=" M133,28 L146.911,48.5" stroke="#000000" stroke-width="1.000000px" />
		</g>
		<g>
			<polygon points="164.5 23.1538 160.936 24.6507 160.651 22.7975 " stroke="#000000" stroke-width="1.000000px" fill="#000000" />
			<path fill="none" d=" M133,28 L164.5,23.1538" stroke="#000000" stroke-width="1.000000px" />
		</g>
		<g>
			<polygon points="156.412 48.5 157.505 44.7924 159.121 45.7431 " stroke="#000000" stroke-width="1.000000px" fill="#000000" />
			<path fill="none" d=" M172,22 L156.412,48.5" stroke="#000000" stroke-width="1.000000px" />
		</g>
		<g>
			<polygon points="73.0122 136.5 74.8894 139.879 73.0784 140.365 " stroke="#000000" stroke-width="1.000000px" fill="#000000" />
			<path fill="none" d=" M82,170 L73.0122,136.5" stroke="#000000" stroke-width="1.000000px" />
		</g>
		<g>
			<polygon points="54.5 164.5 58.361 164.316 57.9933 166.155 " stroke="#000000" stroke-width="1.000000px" fill="#000000" />
			<path fill="none" d=" M82,170 L54.5,164.5" stroke="#000000" stroke-width="1.000000px" />
		</g>
		<g>
			<polygon points="23.9286 81.5 23.9545 77.6347 25.7704 78.1016 " stroke="#000000" stroke-width="1.000000px" fill="#000000" />
			<path fill="none" d=" M31,54 L23.9286,81.5" stroke="#000000" stroke-width="1.000000px" />
		</g>
	</g>
	<g>
		<ellipse cx="106" cy="107" rx="7.5" ry="7.5" fill="#FFDDAA" stroke-width="1.000000px" stroke="#000000" />
		<text x="106" y="107" text-anchor="middle" dominant-baseline="middle" font-family="Arial" font-size="10" fill="#000000">0</text>
	</g>
	<g>
		<ellipse cx="71" cy="129" rx="7.5" ry="7.5" fill="#FFDDAA" stroke-width="1.000000px" stroke="#000000" />
		<text x="71" y="129" text-anchor="middle" dominant-baseline="middle" font-family="Arial" font-size="10" fill="#000000">1</text>
	</g>
	<g>
		<ellipse cx="47" cy="163" rx="7.5" ry="7.5" fill="#FFDDAA" stroke-width="1.000000px" stroke="#000000" />
		<text x="47" y="163" text-anchor="middle" dominant-baseline="middle" font-family="Arial" font-size="10" fill="#000000">2</text>
	</g>
	<g>
		<ellipse cx="75" cy="44" rx="7.5" ry="7.5" fill="#FFDDAA" stroke-width="1.000000px" stroke="#000000" />
		<text x="75" y="44" text-anchor="middle" dominant-baseline="middle" font-family="Arial" font-size="10" fill="#000000">3</text>
	</g>
	<g>
		<ellipse cx="65" cy="82" rx="7.5" ry="7.5" fill="#FFDDAA" stroke-width="1.000000px" stroke="#000000" />
		<text x="65" y="82" text-anchor="middle" dominant-baseline="middle" font-family="Arial" font-size="10" fill="#000000">4</text>
	</g>
	<g>
		<ellipse cx="108" cy="65" rx="7.5" ry="7.5" fill="#FFDDAA" stroke-width="1.000000px" stroke="#000000" />
		<text x="108" y="65" text-anchor="middle" dominant-baseline="middle" font-family="Arial" font-size="10" fill="#000000">5</text>
	</g>
	<g>
		<ellipse cx="152" cy="56" rx="7.5" ry="7.5" fill="#FFDDAA" stroke-width="1.000000px" stroke="#000000" />
		<text x="152" y="56" text-anchor="middle" dominant-baseline="middle" font-family="Arial" font-size="10" fill="#000000">6</text>
	</g>
	<g>
		<ellipse cx="133" cy="28" rx="7.5" ry="7.5" fill="#FFDDAA" stroke-width="1.000000px" stroke="#000000" />
		<text x="133" y="28" text-anchor="middle" dominant-baseline="middle" font-family="Arial" font-size="10" fill="#000000">7</text>
	</g>
	<g>
		<ellipse cx="172" cy="22" rx="7.5" ry="7.5" fill="#FFDDAA" stroke-width="1.000000px" stroke="#000000" />
		<text x="172" y="22" text-anchor="middle" dominant-baseline="middle" font-family="Arial" font-size="10" fill="#000000">8</text>
	</g>
	<g>
		<ellipse cx="82" cy="170" rx="7.5" ry="7.5" fill="#FFDDAA" stroke-width="1.000000px" stroke="#000000" />
		<text x="82" y="170" text-anchor="middle" dominant-baseline="middle" font-family="Arial" font-size="10" fill="#000000">9</text>
	</g>
	<g>
		<ellipse cx="31" cy="54" rx="7.5" ry="7.5" fill="#FFDDAA" stroke-width="1.000000px" stroke="#000000" />
		<text x="31" y="54" text-anchor="middle" dominant-baseline="middle" font-family="Arial" font-size="10" fill="#000000">10</text>
	</g>
	<g>
		<ellipse cx="22" cy="89" rx="7.5" ry="7.5" fill="#FFDDAA" stroke-width="1.000000px" stroke="#000000" />
		<text x="22" y="89" text-anchor="middle" dominant-baseline="middle" font-family="Arial" font-size="10" fill="#000000">11</text>
	</g>
</svg>
