<?xml version="1.0"?>
<svg xmlns="http://www.w3.org/2000/svg" xmlns:xlink="http://www.w3.org/1999/xlink" xmlns:ev="http://www.w3.org/2001/xml-events" version="1.1" baseProfile="full" viewBox="13 13 130 125">
	<g>
		<g>
			<polygon points="104.5 59.7632 101.305 61.9392 100.657 60.1799 " stroke="#000000" stroke-width="1.000000px" fill="#000000" />
			<path fill="none" d=" M74,71 L104.5,59.7632" stroke="#000000" stroke-width="1.000000px" />
		</g>
		<g>
			<polygon points="93.7679 91.5 90.49 89.4513 91.8397 88.1498 " stroke="#000000" stroke-width="1.000000px" fill="#000000" />
			<path fill="none" d=" M74,71 L93.7679,91.5" stroke="#000000" stroke-width="1.000000px" />
		</g>
		<g>
			<polygon points="62.8378 100.5 63.2881 96.6609 65.0418 97.3245 " stroke="#000000" stroke-width="1.000000px" fill="#000000" />
			<path fill="none" d=" M74,71 L62.8378,100.5" stroke="#000000" stroke-width="1.000000px" />
		</g>
		<g>
			<polygon points="52.5 111.75 49.5652 114.266 48.7266 112.589 " stroke="#000000" stroke-width="1.000000px" fill="#000000" />
			<path fill="none" d=" M22,127 L52.5,111.75" stroke="#000000" stroke-width="1.000000px" />
		</g>
		<g>
			<polygon points="129.286 29.5 128.084 33.1738 126.496 32.176 " stroke="#000000" stroke-width="1.000000px" fill="#000000" />
			<path fill="none" d=" M112,57 L129.286,29.5" stroke="#000000" stroke-width="1.000000px" />
		</g>
		<g>
			<polygon points="102.964 91.5 103.007 87.6348 104.821 88.1099 " stroke="#000000" stroke-width="1.000000px" fill="#000000" />
			<path fill="none" d=" M112,57 L102.964,91.5" stroke="#000000" stroke-width="1.000000px" />
		</g>
		<g>
			<polygon points="67.5 106.354 70.9618 104.634 71.3638 106.465 " stroke="#000000" stroke-width="1.000000px" fill="#000000" />
			<path fill="none" d=" M101,99 L67.5,106.354" stroke="#000000" stroke-width="1.000000px" />
		</g>
		<g>
			<polygon points="108.5 106.5 111.815 108.489 110.489 109.815 " stroke="#000000" stroke-width="1.000000px" fill="#000000" />
			<path fill="none" d=" M131,129 L108.5,106.5" stroke="#000000" stroke-width="1.000000px" />
		</g>
	</g>
	<g>
		<ellipse cx="74" cy="71" rx="7.5" ry="7.5" fill="#FFDDAA" stroke-width="1.000000px" stroke="#000000" />
		<text x="74" y="71" text-anchor="middle" dominant-baseline="middle" font-family="Arial" font-size="10" fill="#000000">0</text>
	</g>
	<g>
		<ellipse cx="22" cy="127" rx="7.5" ry="7.5" fill="#FFDDAA" stroke-width="1.000000px" stroke="#000000" />
		<text x="22" y="127" text-anchor="middle" dominant-baseline="middle" font-family="Arial" font-size="10" fill="#000000">1</text>
	</g>
	<g>
		<ellipse cx="112" cy="57" rx="7.5" ry="7.5" fill="#FFDDAA" stroke-width="1.000000px" stroke="#000000" />
		<text x="112" y="57" text-anchor="middle" dominant-baseline="middle" font-family="Arial" font-size="10" fill="#000000">2</text>
	</g>
	<g>
		<ellipse cx="134" cy="22" rx="7.5" ry="7.5" fill="#FFDDAA" stroke-width="1.000000px" stroke="#000000" />
		<text x="134" y="22" text-anchor="middle" dominant-baseline="middle" font-family="Arial" font-size="10" fill="#000000">3</text>
	</g>
	<g>
		<ellipse cx="101" cy="99" rx="7.5" ry="7.5" fill="#FFDDAA" stroke-width="1.000000px" stroke="#000000" />
		<text x="101" y="99" text-anchor="middle" dominant-baseline="middle" font-family="Arial" font-size="10" fill="#000000">4</text>
	</g>
	<g>
		<ellipse cx="60" cy="108" rx="7.5" ry="7.5" fill="#FFDDAA" stroke-width="1.000000px" stroke="#000000" />
		<text x="60" y="108" text-anchor="middle" dominant-baseline="middle" font-family="Arial" font-size="10" fill="#000000">5</text>
	</g>
	<g>
		<ellipse cx="131" cy="129" rx="7.5" ry="7.5" fill="#FFDDAA" stroke-width="1.000000px" stroke="#000000" />
		<text x="131" y="129" text-anchor="middle" dominant-baseline="middle" font-family="Arial" font-size="10" fill="#000000">6</text>
	</g>
</svg>
