<?xml version="1.0"?>
<svg xmlns="http://www.w3.org/2000/svg" xmlns:xlink="http://www.w3.org/1999/xlink" xmlns:ev="http://www.w3.org/2001/xml-events" version="1.1" baseProfile="full" viewBox="13 13 166 166">
	<g>
		<g>
			<polygon points="71.5 59.7727 75.1671 60.9951 74.1604 62.5769 " stroke="#000000" stroke-width="1.000000px" fill="#000000" />
			<path fill="none" d=" M97,76 L71.5,59.7727" stroke="#000000" stroke-width="1.000000px" />
		</g>
		<g>
			<polygon points="124.5 96.4286 120.931 94.9449 122.049 93.4398 " stroke="#000000" stroke-width="1.000000px" fill="#000000" />
			<path fill="none" d=" M97,76 L124.5,96.4286" stroke="#000000" stroke-width="1.000000px" />
		</g>
		<g>
			<polygon points="38.5 33.3636 41.966 35.0749 40.7529 36.5047 " stroke="#000000" stroke-width="1.000000px" fill="#000000" />
			<path fill="none" d=" M64,55 L38.5,33.3636" stroke="#000000" stroke-width="1.000000px" />
		</g>
		<g>
			<polygon points="120.5 62.3462 124.357 62.0859 124.025 63.9314 " stroke="#000000" stroke-width="1.000000px" fill="#000000" />
			<path fill="none" d=" M152,68 L120.5,62.3462" stroke="#000000" stroke-width="1.000000px" />
		</g>
		<g>
			<polygon points="71.5 55.9184 75.3361 55.4436 75.1083 57.3047 " stroke="#000000" stroke-width="1.000000px" fill="#000000" />
			<path fill="none" d=" M113,61 L71.5,55.9184" stroke="#000000" stroke-width="1.000000px" />
		</g>
		<g>
			<polygon points="98.9138 39.5 101.753 42.123 100.185 43.1505 " stroke="#000000" stroke-width="1.000000px" fill="#000000" />
			<path fill="none" d=" M113,61 L98.9138,39.5" stroke="#000000" stroke-width="1.000000px" />
		</g>
		<g>
			<polygon points="126.731 29.5 126.092 33.3122 124.373 32.563 " stroke="#000000" stroke-width="1.000000px" fill="#000000" />
			<path fill="none" d=" M113,61 L126.731,29.5" stroke="#000000" stroke-width="1.000000px" />
		</g>
		<g>
			<polygon points="147.588 75.5 146.495 79.2076 144.879 78.2569 " stroke="#000000" stroke-width="1.000000px" fill="#000000" />
			<path fill="none" d=" M132,102 L147.588,75.5" stroke="#000000" stroke-width="1.000000px" />
		</g>
		<g>
			<polygon points="116.476 68.5 118.903 71.5082 117.202 72.2966 " stroke="#000000" stroke-width="1.000000px" fill="#000000" />
			<path fill="none" d=" M132,102 L116.476,68.5" stroke="#000000" stroke-width="1.000000px" />
		</g>
		<g>
			<polygon points="132.852 109.5 134.207 113.12 132.344 113.332 " stroke="#000000" stroke-width="1.000000px" fill="#000000" />
			<path fill="none" d=" M137,146 L132.852,109.5" stroke="#000000" stroke-width="1.000000px" />
		</g>
		<g>
			<polygon points="139.5 107.786 143.042 109.334 141.897 110.819 " stroke="#000000" stroke-width="1.000000px" fill="#000000" />
			<path fill="none" d=" M167,129 L139.5,107.786" stroke="#000000" stroke-width="1.000000px" />
		</g>
		<g>
			<polygon points="144.5 141.75 147.3 139.086 148.225 140.717 " stroke="#000000" stroke-width="1.000000px" fill="#000000" />
			<path fill="none" d=" M167,129 L144.5,141.75" stroke="#000000" stroke-width="1.000000px" />
		</g>
		<g>
			<polygon points="169.451 162.5 168.243 158.828 170.113 158.692 " stroke="#000000" stroke-width="1.000000px" fill="#000000" />
			<path fill="none" d=" M167,129 L169.451,162.5" stroke="#000000" stroke-width="1.000000px" />
		</g>
		<g>
			<polygon points="144.5 151.455 148.084 152.902 146.981 154.418 " stroke="#000000" stroke-width="1.000000px" fill="#000000" />
			<path fill="none" d=" M170,170 L144.5,151.455" stroke="#000000" stroke-width="1.000000px" />
		</g>
		<g>
			<polygon points="56.5 56.25 52.9551 57.7912 52.6469 55.9418 " stroke="#000000" stroke-width="1.000000px" fill="#000000" />
			<path fill="none" d=" M22,62 L56.5,56.25" stroke="#000000" stroke-width="1.000000px" />
		</g>
		<g>
			<polygon points="29.0714 34.5 29.0455 38.3653 27.2296 37.8984 " stroke="#000000" stroke-width="1.000000px" fill="#000000" />
			<path fill="none" d=" M22,62 L29.0714,34.5" stroke="#000000" stroke-width="1.000000px" />
		</g>
		<g>
			<polygon points="122.5 24.0833 119.138 25.9903 118.636 24.1837 " stroke="#000000" stroke-width="1.000000px" fill="#000000" />
			<path fill="none" d=" M94,32 L122.5,24.0833" stroke="#000000" stroke-width="1.000000px" />
		</g>
		<g>
			<polygon points="94.5114 39.5 95.7018 43.1775 93.8311 43.3051 " stroke="#000000" stroke-width="1.000000px" fill="#000000" />
			<path fill="none" d=" M97,76 L94.5114,39.5" stroke="#000000" stroke-width="1.000000px" />
		</g>
	</g>
	<g>
		<ellipse cx="97" cy="76" rx="7.5" ry="7.5" fill="#FFDDAA" stroke-width="1.000000px" stroke="#000000" />
		<text x="97" y="76" text-anchor="middle" dominant-baseline="middle" font-family="Arial" font-size="10" fill="#000000">0</text>
	</g>
	<g>
		<ellipse cx="64" cy="55" rx="7.5" ry="7.5" fill="#FFDDAA" stroke-width="1.000000px" stroke="#000000" />
		<text x="64" y="55" text-anchor="middle" dominant-baseline="middle" font-family="Arial" font-size="10" fill="#000000">1</text>
	</g>
	<g>
		<ellipse cx="31" cy="27" rx="7.5" ry="7.5" fill="#FFDDAA" stroke-width="1.000000px" stroke="#000000" />
		<text x="31" y="27" text-anchor="middle" dominant-baseline="middle" font-family="Arial" font-size="10" fill="#000000">2</text>
	</g>
	<g>
		<ellipse cx="152" cy="68" rx="7.5" ry="7.5" fill="#FFDDAA" stroke-width="1.000000px" stroke="#000000" />
		<text x="152" y="68" text-anchor="middle" dominant-baseline="middle" font-family="Arial" font-size="10" fill="#000000">3</text>
	</g>
	<g>
		<ellipse cx="113" cy="61" rx="7.5" ry="7.5" fill="#FFDDAA" stroke-width="1.000000px" stroke="#000000" />
		<text x="113" y="61" text-anchor="middle" dominant-baseline="middle" font-family="Arial" font-size="10" fill="#000000">4</text>
	</g>
	<g>
		<ellipse cx="132" cy="102" rx="7.5" ry="7.5" fill="#FFDDAA" stroke-width="1.000000px" stroke="#000000" />
		<text x="132" y="102" text-anchor="middle" dominant-baseline="middle" font-family="Arial" font-size="10" fill="#000000">5</text>
	</g>
	<g>
		<ellipse cx="137" cy="146" rx="7.5" ry="7.5" fill="#FFDDAA" stroke-width="1.000000px" stroke="#000000" />
		<text x="137" y="146" text-anchor="middle" dominant-baseline="middle" font-family="Arial" font-size="10" fill="#000000">6</text>
	</g>
	<g>
		<ellipse cx="167" cy="129" rx="7.5" ry="7.5" fill="#FFDDAA" stroke-width="1.000000px" stroke="#000000" />
		<text x="167" y="129" text-anchor="middle" dominant-baseline="middle" font-family="Arial" font-size="10" fill="#000000">7</text>
	</g>
	<g>
		<ellipse cx="170" cy="170" rx="7.5" ry="7.5" fill="#FFDDAA" stroke-width="1.000000px" stroke="#000000" />
		<text x="170" y="170" text-anchor="middle" dominant-baseline="middle" font-family="Arial" font-size="10" fill="#000000">8</text>
	</g>
	<g>
		<ellipse cx="22" cy="62" rx="7.5" ry="7.5" fill="#FFDDAA" stroke-width="1.000000px" stroke="#000000" />
		<text x="22" y="62" text-anchor="middle" dominant-baseline="middle" font-family="Arial" font-size="10" fill="#000000">9</text>
	</g>
	<g>
		<ellipse cx="94" cy="32" rx="7.5" ry="7.5" fill="#FFDDAA" stroke-width="1.000000px" stroke="#000000" />
		<text x="94" y="32" text-anchor="middle" dominant-baseline="middle" font-family="Arial" font-size="10" fill="#000000">10</text>
	</g>
	<g>
		<ellipse cx="130" cy="22" rx="7.5" ry="7.5" fill="#FFDDAA" stroke-width="1.000000px" stroke="#000000" />
		<text x="130" y="22" text-anchor="middle" dominant-baseline="middle" font-family="Arial" font-size="10" fill="#000000">11</text>
	</g>
</svg>
