<?xml version="1.0"?>
<svg xmlns="http://www.w3.org/2000/svg" xmlns:xlink="http://www.w3.org/1999/xlink" xmlns:ev="http://www.w3.org/2001/xml-events" version="1.1" baseProfile="full" viewBox="13 13 57 57">
	<g>
		<g>
			<polygon points="57.8333 32.5 59.1792 36.1235 57.3157 36.3306 " stroke="#000000" stroke-width="1.000000px" fill="#000000" />
			<path fill="none" d=" M61,61 L57.8333,32.5" stroke="#000000" stroke-width="1.000000px" />
		</g>
		<g>
			<polygon points="49.5 31.6429 47.3144 34.831 46.0712 33.4274 " stroke="#000000" stroke-width="1.000000px" fill="#000000" />
			<path fill="none" d=" M22,56 L49.5,31.6429" stroke="#000000" stroke-width="1.000000px" />
		</g>
		<g>
			<polygon points="53.5 60.0385 49.6612 60.4915 49.8997 58.6317 " stroke="#000000" stroke-width="1.000000px" fill="#000000" />
			<path fill="none" d=" M22,56 L53.5,60.0385" stroke="#000000" stroke-width="1.000000px" />
		</g>
		<g>
			<polygon points="33.6912 29.5 33.0353 33.3094 31.3198 32.5525 " stroke="#000000" stroke-width="1.000000px" fill="#000000" />
			<path fill="none" d=" M22,56 L33.6912,29.5" stroke="#000000" stroke-width="1.000000px" />
		</g>
		<g>
			<polygon points="56.3846 53.5 53.6208 50.7976 55.2177 49.8149 " stroke="#000000" stroke-width="1.000000px" fill="#000000" />
			<path fill="none" d=" M37,22 L56.3846,53.5" stroke="#000000" stroke-width="1.000000px" />
		</g>
	</g>
	<g>
		<ellipse cx="61" cy="61" rx="7.5" ry="7.5" fill="#FFDDAA" stroke-width="1.000000px" stroke="#000000" />
		<text x="61" y="61" text-anchor="middle" dominant-baseline="middle" font-family="Arial" font-size="10" fill="#000000">6</text>
	</g>
	<g>
		<ellipse cx="57" cy="25" rx="7.5" ry="7.5" fill="#FFDDAA" stroke-width="1.000000px" stroke="#000000" />
		<text x="57" y="25" text-anchor="middle" dominant-baseline="middle" font-family="Arial" font-size="10" fill="#000000">5</text>
	</g>
	<g>
		<ellipse cx="22" cy="56" rx="7.5" ry="7.5" fill="#FFDDAA" stroke-width="1.000000px" stroke="#000000" />
		<text x="22" y="56" text-anchor="middle" dominant-baseline="middle" font-family="Arial" font-size="10" fill="#000000">7</text>
	</g>
	<g>
		<ellipse cx="37" cy="22" rx="7.5" ry="7.5" fill="#FFDDAA" stroke-width="1.000000px" stroke="#000000" />
		<text x="37" y="22" text-anchor="middle" dominant-baseline="middle" font-family="Arial" font-size="10" fill="#000000">8</text>
	</g>
</svg>
