<?xml version="1.0"?>
<svg xmlns="http://www.w3.org/2000/svg" xmlns:xlink="http://www.w3.org/1999/xlink" xmlns:ev="http://www.w3.org/2001/xml-events" version="1.1" baseProfile="full" viewBox="13 13 195 164">
	<g>
		<g>
			<polygon points="107 70.5 107.434 74.341 105.575 74.0932 " stroke="#000000" stroke-width="1.000000px" fill="#000000" />
			<path fill="none" d=" M102,108 L107,70.5" stroke="#000000" stroke-width="1.000000px" />
		</g>
		<g>
			<polygon points="142.5 108.844 138.731 109.703 138.77 107.828 " stroke="#000000" stroke-width="1.000000px" fill="#000000" />
			<path fill="none" d=" M102,108 L142.5,108.844" stroke="#000000" stroke-width="1.000000px" />
		</g>
		<g>
			<polygon points="99.0122 29.5 100.889 32.879 99.0784 33.3648 " stroke="#000000" stroke-width="1.000000px" fill="#000000" />
			<path fill="none" d=" M108,63 L99.0122,29.5" stroke="#000000" stroke-width="1.000000px" />
		</g>
		<g>
			<polygon points="159.5 68.8065 163.039 70.3608 161.891 71.8434 " stroke="#000000" stroke-width="1.000000px" fill="#000000" />
			<path fill="none" d=" M183,87 L159.5,68.8065" stroke="#000000" stroke-width="1.000000px" />
		</g>
		<g>
			<polygon points="115.5 63 119.25 62.0625 119.25 63.9375 " stroke="#000000" stroke-width="1.000000px" fill="#000000" />
			<path fill="none" d=" M152,63 L115.5,63" stroke="#000000" stroke-width="1.000000px" />
		</g>
		<g>
			<polygon points="181.5 47.0541 178.647 49.662 177.755 48.0125 " stroke="#000000" stroke-width="1.000000px" fill="#000000" />
			<path fill="none" d=" M152,63 L181.5,47.0541" stroke="#000000" stroke-width="1.000000px" />
		</g>
		<g>
			<polygon points="159.354 29.5 159.465 33.3638 157.634 32.9618 " stroke="#000000" stroke-width="1.000000px" fill="#000000" />
			<path fill="none" d=" M152,63 L159.354,29.5" stroke="#000000" stroke-width="1.000000px" />
		</g>
		<g>
			<polygon points="175.5 92 172.9 94.8602 171.86 93.3001 " stroke="#000000" stroke-width="1.000000px" fill="#000000" />
			<path fill="none" d=" M150,109 L175.5,92" stroke="#000000" stroke-width="1.000000px" />
		</g>
		<g>
			<polygon points="151.674 70.5 152.448 74.2872 150.574 74.2057 " stroke="#000000" stroke-width="1.000000px" fill="#000000" />
			<path fill="none" d=" M150,109 L151.674,70.5" stroke="#000000" stroke-width="1.000000px" />
		</g>
		<g>
			<polygon points="152.5 116.5 154.575 119.761 152.796 120.354 " stroke="#000000" stroke-width="1.000000px" fill="#000000" />
			<path fill="none" d=" M164,151 L152.5,116.5" stroke="#000000" stroke-width="1.000000px" />
		</g>
		<g>
			<polygon points="157.5 113.038 161.246 113.991 160.357 115.642 " stroke="#000000" stroke-width="1.000000px" fill="#000000" />
			<path fill="none" d=" M189,130 L157.5,113.038" stroke="#000000" stroke-width="1.000000px" />
		</g>
		<g>
			<polygon points="171.5 144.7 173.768 141.57 174.974 143.006 " stroke="#000000" stroke-width="1.000000px" fill="#000000" />
			<path fill="none" d=" M189,130 L171.5,144.7" stroke="#000000" stroke-width="1.000000px" />
		</g>
		<g>
			<polygon points="196.973 159.5 195.09 156.124 196.9 155.635 " stroke="#000000" stroke-width="1.000000px" fill="#000000" />
			<path fill="none" d=" M189,130 L196.973,159.5" stroke="#000000" stroke-width="1.000000px" />
		</g>
		<g>
			<polygon points="171.5 154.429 175.3 155.135 174.521 156.84 " stroke="#000000" stroke-width="1.000000px" fill="#000000" />
			<path fill="none" d=" M199,167 L171.5,154.429" stroke="#000000" stroke-width="1.000000px" />
		</g>
		<g>
			<polygon points="100.5 59.1486 96.7359 58.2696 97.5924 56.6017 " stroke="#000000" stroke-width="1.000000px" fill="#000000" />
			<path fill="none" d=" M71,44 L100.5,59.1486" stroke="#000000" stroke-width="1.000000px" />
		</g>
		<g>
			<polygon points="89.5 28.3462 87.2429 31.4841 86.0317 30.0528 " stroke="#000000" stroke-width="1.000000px" fill="#000000" />
			<path fill="none" d=" M71,44 L89.5,28.3462" stroke="#000000" stroke-width="1.000000px" />
		</g>
		<g>
			<polygon points="168.5 27.625 172.062 29.125 170.938 30.625 " stroke="#000000" stroke-width="1.000000px" fill="#000000" />
			<path fill="none" d=" M189,43 L168.5,27.625" stroke="#000000" stroke-width="1.000000px" />
		</g>
		<g>
			<polygon points="82.8649 137.5 84.1191 133.844 85.6921 134.864 " stroke="#000000" stroke-width="1.000000px" fill="#000000" />
			<path fill="none" d=" M102,108 L82.8649,137.5" stroke="#000000" stroke-width="1.000000px" />
		</g>
		<g>
			<polygon points="94.5 109.534 91.0139 111.204 90.6382 109.367 " stroke="#000000" stroke-width="1.000000px" fill="#000000" />
			<path fill="none" d=" M58,117 L94.5,109.534" stroke="#000000" stroke-width="1.000000px" />
		</g>
		<g>
			<polygon points="29.5 133.625 32.2668 130.926 33.2115 132.545 " stroke="#000000" stroke-width="1.000000px" fill="#000000" />
			<path fill="none" d=" M58,117 L29.5,133.625" stroke="#000000" stroke-width="1.000000px" />
		</g>
		<g>
			<polygon points="27.75 145.5 30.7756 147.906 29.2876 149.046 " stroke="#000000" stroke-width="1.000000px" fill="#000000" />
			<path fill="none" d=" M45,168 L27.75,145.5" stroke="#000000" stroke-width="1.000000px" />
		</g>
		<g>
			<polygon points="70.5 150.227 67.9596 153.141 66.8875 151.602 " stroke="#000000" stroke-width="1.000000px" fill="#000000" />
			<path fill="none" d=" M45,168 L70.5,150.227" stroke="#000000" stroke-width="1.000000px" />
		</g>
	</g>
	<g>
		<ellipse cx="102" cy="108" rx="7.5" ry="7.5" fill="#FFDDAA" stroke-width="1.000000px" stroke="#000000" />
		<text x="102" y="108" text-anchor="middle" dominant-baseline="middle" font-family="Arial" font-size="10" fill="#000000">0</text>
	</g>
	<g>
		<ellipse cx="108" cy="63" rx="7.5" ry="7.5" fill="#FFDDAA" stroke-width="1.000000px" stroke="#000000" />
		<text x="108" y="63" text-anchor="middle" dominant-baseline="middle" font-family="Arial" font-size="10" fill="#000000">1</text>
	</g>
	<g>
		<ellipse cx="97" cy="22" rx="7.5" ry="7.5" fill="#FFDDAA" stroke-width="1.000000px" stroke="#000000" />
		<text x="97" y="22" text-anchor="middle" dominant-baseline="middle" font-family="Arial" font-size="10" fill="#000000">2</text>
	</g>
	<g>
		<ellipse cx="183" cy="87" rx="7.5" ry="7.5" fill="#FFDDAA" stroke-width="1.000000px" stroke="#000000" />
		<text x="183" y="87" text-anchor="middle" dominant-baseline="middle" font-family="Arial" font-size="10" fill="#000000">3</text>
	</g>
	<g>
		<ellipse cx="152" cy="63" rx="7.5" ry="7.5" fill="#FFDDAA" stroke-width="1.000000px" stroke="#000000" />
		<text x="152" y="63" text-anchor="middle" dominant-baseline="middle" font-family="Arial" font-size="10" fill="#000000">4</text>
	</g>
	<g>
		<ellipse cx="150" cy="109" rx="7.5" ry="7.5" fill="#FFDDAA" stroke-width="1.000000px" stroke="#000000" />
		<text x="150" y="109" text-anchor="middle" dominant-baseline="middle" font-family="Arial" font-size="10" fill="#000000">5</text>
	</g>
	<g>
		<ellipse cx="164" cy="151" rx="7.5" ry="7.5" fill="#FFDDAA" stroke-width="1.000000px" stroke="#000000" />
		<text x="164" y="151" text-anchor="middle" dominant-baseline="middle" font-family="Arial" font-size="10" fill="#000000">6</text>
	</g>
	<g>
		<ellipse cx="189" cy="130" rx="7.5" ry="7.5" fill="#FFDDAA" stroke-width="1.000000px" stroke="#000000" />
		<text x="189" y="130" text-anchor="middle" dominant-baseline="middle" font-family="Arial" font-size="10" fill="#000000">7</text>
	</g>
	<g>
		<ellipse cx="199" cy="167" rx="7.5" ry="7.5" fill="#FFDDAA" stroke-width="1.000000px" stroke="#000000" />
		<text x="199" y="167" text-anchor="middle" dominant-baseline="middle" font-family="Arial" font-size="10" fill="#000000">8</text>
	</g>
	<g>
		<ellipse cx="71" cy="44" rx="7.5" ry="7.5" fill="#FFDDAA" stroke-width="1.000000px" stroke="#000000" />
		<text x="71" y="44" text-anchor="middle" dominant-baseline="middle" font-family="Arial" font-size="10" fill="#000000">9</text>
	</g>
	<g>
		<ellipse cx="189" cy="43" rx="7.5" ry="7.5" fill="#FFDDAA" stroke-width="1.000000px" stroke="#000000" />
		<text x="189" y="43" text-anchor="middle" dominant-baseline="middle" font-family="Arial" font-size="10" fill="#000000">10</text>
	</g>
	<g>
		<ellipse cx="161" cy="22" rx="7.5" ry="7.5" fill="#FFDDAA" stroke-width="1.000000px" stroke="#000000" />
		<text x="161" y="22" text-anchor="middle" dominant-baseline="middle" font-family="Arial" font-size="10" fill="#000000">11</text>
	</g>
	<g>
		<ellipse cx="58" cy="117" rx="7.5" ry="7.5" fill="#FFDDAA" stroke-width="1.000000px" stroke="#000000" />
		<text x="58" y="117" text-anchor="middle" dominant-baseline="middle" font-family="Arial" font-size="10" fill="#000000">12</text>
	</g>
	<g>
		<ellipse cx="22" cy="138" rx="7.5" ry="7.5" fill="#FFDDAA" stroke-width="1.000000px" stroke="#000000" />
		<text x="22" y="138" text-anchor="middle" dominant-baseline="middle" font-family="Arial" font-size="10" fill="#000000">13</text>
	</g>
	<g>
		<ellipse cx="45" cy="168" rx="7.5" ry="7.5" fill="#FFDDAA" stroke-width="1.000000px" stroke="#000000" />
		<text x="45" y="168" text-anchor="middle" dominant-baseline="middle" font-family="Arial" font-size="10" fill="#000000">14</text>
	</g>
	<g>
		<ellipse cx="78" cy="145" rx="7.5" ry="7.5" fill="#FFDDAA" stroke-width="1.000000px" stroke="#000000" />
		<text x="78" y="145" text-anchor="middle" dominant-baseline="middle" font-family="Arial" font-size="10" fill="#000000">15</text>
	</g>
</svg>
