<?xml version="1.0"?>
<svg xmlns="http://www.w3.org/2000/svg" xmlns:xlink="http://www.w3.org/1999/xlink" xmlns:ev="http://www.w3.org/2001/xml-events" version="1.1" baseProfile="full" viewBox="13 13 141 140">
	<g>
		<g>
			<polygon points="108.5 29.5 108.204 33.354 106.425 32.7611 " stroke="#000000" stroke-width="1.000000px" fill="#000000" />
			<path fill="none" d=" M98,61 L108.5,29.5" stroke="#000000" stroke-width="1.000000px" />
		</g>
		<g>
			<polygon points="66.5 47.2692 70.3122 47.9083 69.563 49.6271 " stroke="#000000" stroke-width="1.000000px" fill="#000000" />
			<path fill="none" d=" M98,61 L66.5,47.2692" stroke="#000000" stroke-width="1.000000px" />
		</g>
		<g>
			<polygon points="130.5 68.3125 126.636 68.404 127.047 66.5747 " stroke="#000000" stroke-width="1.000000px" fill="#000000" />
			<path fill="none" d=" M98,61 L130.5,68.3125" stroke="#000000" stroke-width="1.000000px" />
		</g>
		<g>
			<polygon points="29.5 29.6486 33.2823 30.4461 32.462 32.1322 " stroke="#000000" stroke-width="1.000000px" fill="#000000" />
			<path fill="none" d=" M59,44 L29.5,29.6486" stroke="#000000" stroke-width="1.000000px" />
		</g>
		<g>
			<polygon points="99.1932 68.5 100.708 72.0561 98.8565 72.3507 " stroke="#000000" stroke-width="1.000000px" fill="#000000" />
			<path fill="none" d=" M105,105 L99.1932,68.5" stroke="#000000" stroke-width="1.000000px" />
		</g>
		<g>
			<polygon points="137.5 107.438 133.69 108.092 133.831 106.222 " stroke="#000000" stroke-width="1.000000px" fill="#000000" />
			<path fill="none" d=" M105,105 L137.5,107.438" stroke="#000000" stroke-width="1.000000px" />
		</g>
		<g>
			<polygon points="96.9231 136.5 96.9464 132.635 98.7626 133.1 " stroke="#000000" stroke-width="1.000000px" fill="#000000" />
			<path fill="none" d=" M105,105 L96.9231,136.5" stroke="#000000" stroke-width="1.000000px" />
		</g>
		<g>
			<polygon points="139.382 77.5 140.983 81.0181 139.139 81.3578 " stroke="#000000" stroke-width="1.000000px" fill="#000000" />
			<path fill="none" d=" M145,108 L139.382,77.5" stroke="#000000" stroke-width="1.000000px" />
		</g>
	</g>
	<g>
		<ellipse cx="98" cy="61" rx="7.5" ry="7.5" fill="#FFDDAA" stroke-width="1.000000px" stroke="#000000" />
		<text x="98" y="61" text-anchor="middle" dominant-baseline="middle" font-family="Arial" font-size="10" fill="#000000">0</text>
	</g>
	<g>
		<ellipse cx="111" cy="22" rx="7.5" ry="7.5" fill="#FFDDAA" stroke-width="1.000000px" stroke="#000000" />
		<text x="111" y="22" text-anchor="middle" dominant-baseline="middle" font-family="Arial" font-size="10" fill="#000000">1</text>
	</g>
	<g>
		<ellipse cx="59" cy="44" rx="7.5" ry="7.5" fill="#FFDDAA" stroke-width="1.000000px" stroke="#000000" />
		<text x="59" y="44" text-anchor="middle" dominant-baseline="middle" font-family="Arial" font-size="10" fill="#000000">2</text>
	</g>
	<g>
		<ellipse cx="138" cy="70" rx="7.5" ry="7.5" fill="#FFDDAA" stroke-width="1.000000px" stroke="#000000" />
		<text x="138" y="70" text-anchor="middle" dominant-baseline="middle" font-family="Arial" font-size="10" fill="#000000">3</text>
	</g>
	<g>
		<ellipse cx="22" cy="26" rx="7.5" ry="7.5" fill="#FFDDAA" stroke-width="1.000000px" stroke="#000000" />
		<text x="22" y="26" text-anchor="middle" dominant-baseline="middle" font-family="Arial" font-size="10" fill="#000000">4</text>
	</g>
	<g>
		<ellipse cx="105" cy="105" rx="7.5" ry="7.5" fill="#FFDDAA" stroke-width="1.000000px" stroke="#000000" />
		<text x="105" y="105" text-anchor="middle" dominant-baseline="middle" font-family="Arial" font-size="10" fill="#000000">5</text>
	</g>
	<g>
		<ellipse cx="145" cy="108" rx="7.5" ry="7.5" fill="#FFDDAA" stroke-width="1.000000px" stroke="#000000" />
		<text x="145" y="108" text-anchor="middle" dominant-baseline="middle" font-family="Arial" font-size="10" fill="#000000">6</text>
	</g>
	<g>
		<ellipse cx="95" cy="144" rx="7.5" ry="7.5" fill="#FFDDAA" stroke-width="1.000000px" stroke="#000000" />
		<text x="95" y="144" text-anchor="middle" dominant-baseline="middle" font-family="Arial" font-size="10" fill="#000000">7</text>
	</g>
</svg>
