<?xml version="1.0"?>
<svg xmlns="http://www.w3.org/2000/svg" xmlns:xlink="http://www.w3.org/1999/xlink" xmlns:ev="http://www.w3.org/2001/xml-events" version="1.1" baseProfile="full" viewBox="13 13 85 84">
	<g>
		<g>
			<polygon points="52.5 71.1447 49.6713 73.7791 48.7644 72.138 " stroke="#000000" stroke-width="1.000000px" fill="#000000" />
			<path fill="none" d=" M22,88 L52.5,71.1447" stroke="#000000" stroke-width="1.000000px" />
		</g>
		<g>
			<polygon points="40.0714 60.5 38.7955 64.1487 37.2285 63.119 " stroke="#000000" stroke-width="1.000000px" fill="#000000" />
			<path fill="none" d=" M22,88 L40.0714,60.5" stroke="#000000" stroke-width="1.000000px" />
		</g>
		<g>
			<polygon points="69.9643 29.5 73.203 31.6101 71.829 32.8859 " stroke="#000000" stroke-width="1.000000px" fill="#000000" />
			<path fill="none" d=" M89,50 L69.9643,29.5" stroke="#000000" stroke-width="1.000000px" />
		</g>
		<g>
			<polygon points="60.5 59.5 59.814 55.6959 61.6849 55.8207 " stroke="#000000" stroke-width="1.000000px" fill="#000000" />
			<path fill="none" d=" M63,22 L60.5,59.5" stroke="#000000" stroke-width="1.000000px" />
		</g>
		<g>
			<polygon points="81.5 50.5114 77.8225 51.7018 77.6949 49.8311 " stroke="#000000" stroke-width="1.000000px" fill="#000000" />
			<path fill="none" d=" M45,53 L81.5,50.5114" stroke="#000000" stroke-width="1.000000px" />
		</g>
		<g>
			<polygon points="58.6452 29.5 57.5729 33.2137 55.9514 32.2722 " stroke="#000000" stroke-width="1.000000px" fill="#000000" />
			<path fill="none" d=" M45,53 L58.6452,29.5" stroke="#000000" stroke-width="1.000000px" />
		</g>
	</g>
	<g>
		<ellipse cx="22" cy="88" rx="7.5" ry="7.5" fill="#FFDDAA" stroke-width="1.000000px" stroke="#000000" />
		<text x="22" y="88" text-anchor="middle" dominant-baseline="middle" font-family="Arial" font-size="10" fill="#000000">0</text>
	</g>
	<g>
		<ellipse cx="60" cy="67" rx="7.5" ry="7.5" fill="#FFDDAA" stroke-width="1.000000px" stroke="#000000" />
		<text x="60" y="67" text-anchor="middle" dominant-baseline="middle" font-family="Arial" font-size="10" fill="#000000">1</text>
	</g>
	<g>
		<ellipse cx="45" cy="53" rx="7.5" ry="7.5" fill="#FFDDAA" stroke-width="1.000000px" stroke="#000000" />
		<text x="45" y="53" text-anchor="middle" dominant-baseline="middle" font-family="Arial" font-size="10" fill="#000000">5</text>
	</g>
	<g>
		<ellipse cx="89" cy="50" rx="7.5" ry="7.5" fill="#FFDDAA" stroke-width="1.000000px" stroke="#000000" />
		<text x="89" y="50" text-anchor="middle" dominant-baseline="middle" font-family="Arial" font-size="10" fill="#000000">3</text>
	</g>
	<g>
		<ellipse cx="63" cy="22" rx="7.5" ry="7.5" fill="#FFDDAA" stroke-width="1.000000px" stroke="#000000" />
		<text x="63" y="22" text-anchor="middle" dominant-baseline="middle" font-family="Arial" font-size="10" fill="#000000">4</text>
	</g>
</svg>
