<?xml version="1.0"?>
<svg xmlns="http://www.w3.org/2000/svg" xmlns:xlink="http://www.w3.org/1999/xlink" xmlns:ev="http://www.w3.org/2001/xml-events" version="1.1" baseProfile="full" viewBox="13 13 122 118">
	<g>
		<g>
			<polygon points="29.5 29.2237 32.933 27.4472 33.3651 29.2717 " stroke="#000000" stroke-width="1.000000px" fill="#000000" />
			<path fill="none" d=" M60,22 L29.5,29.2237" stroke="#000000" stroke-width="1.000000px" />
		</g>
		<g>
			<polygon points="39.9265 57.5 37.0488 54.9192 38.6018 53.8686 " stroke="#000000" stroke-width="1.000000px" fill="#000000" />
			<path fill="none" d=" M22,31 L39.9265,57.5" stroke="#000000" stroke-width="1.000000px" />
		</g>
		<g>
			<polygon points="65.3571 29.5 68.2997 32.0066 66.7739 33.0964 " stroke="#000000" stroke-width="1.000000px" fill="#000000" />
			<path fill="none" d=" M85,57 L65.3571,29.5" stroke="#000000" stroke-width="1.000000px" />
		</g>
		<g>
			<polygon points="52.5 63.5 55.9933 61.8453 56.361 63.6839 " stroke="#000000" stroke-width="1.000000px" fill="#000000" />
			<path fill="none" d=" M85,57 L52.5,63.5" stroke="#000000" stroke-width="1.000000px" />
		</g>
		<g>
			<polygon points="110.5 77.8636 107.004 76.2146 108.191 74.7634 " stroke="#000000" stroke-width="1.000000px" fill="#000000" />
			<path fill="none" d=" M85,57 L110.5,77.8636" stroke="#000000" stroke-width="1.000000px" />
		</g>
		<g>
			<polygon points="73.6923 88.5 74.0769 84.6538 75.8417 85.2873 " stroke="#000000" stroke-width="1.000000px" fill="#000000" />
			<path fill="none" d=" M85,57 L73.6923,88.5" stroke="#000000" stroke-width="1.000000px" />
		</g>
		<g>
			<polygon points="118.5 47.1951 115.164 49.1482 114.638 47.3487 " stroke="#000000" stroke-width="1.000000px" fill="#000000" />
			<path fill="none" d=" M85,57 L118.5,47.1951" stroke="#000000" stroke-width="1.000000px" />
		</g>
		<g>
			<polygon points="105.961 114.5 106.465 110.668 108.209 111.356 " stroke="#000000" stroke-width="1.000000px" fill="#000000" />
			<path fill="none" d=" M118,84 L105.961,114.5" stroke="#000000" stroke-width="1.000000px" />
		</g>
		<g>
			<polygon points="95.5 115.906 91.9984 114.269 93.1808 112.814 " stroke="#000000" stroke-width="1.000000px" fill="#000000" />
			<path fill="none" d=" M71,96 L95.5,115.906" stroke="#000000" stroke-width="1.000000px" />
		</g>
		<g>
			<polygon points="51.2903 72.5 54.4184 74.7708 52.9818 75.9757 " stroke="#000000" stroke-width="1.000000px" fill="#000000" />
			<path fill="none" d=" M71,96 L51.2903,72.5" stroke="#000000" stroke-width="1.000000px" />
		</g>
		<g>
			<polygon points="119.538 76.5 119.374 72.6381 121.21 73.0149 " stroke="#000000" stroke-width="1.000000px" fill="#000000" />
			<path fill="none" d=" M126,45 L119.538,76.5" stroke="#000000" stroke-width="1.000000px" />
		</g>
	</g>
	<g>
		<ellipse cx="60" cy="22" rx="7.5" ry="7.5" fill="#FFDDAA" stroke-width="1.000000px" stroke="#000000" />
		<text x="60" y="22" text-anchor="middle" dominant-baseline="middle" font-family="Arial" font-size="10" fill="#000000">0</text>
	</g>
	<g>
		<ellipse cx="103" cy="122" rx="7.5" ry="7.5" fill="#FFDDAA" stroke-width="1.000000px" stroke="#000000" />
		<text x="103" y="122" text-anchor="middle" dominant-baseline="middle" font-family="Arial" font-size="10" fill="#000000">1</text>
	</g>
	<g>
		<ellipse cx="45" cy="65" rx="7.5" ry="7.5" fill="#FFDDAA" stroke-width="1.000000px" stroke="#000000" />
		<text x="45" y="65" text-anchor="middle" dominant-baseline="middle" font-family="Arial" font-size="10" fill="#000000">2</text>
	</g>
	<g>
		<ellipse cx="22" cy="31" rx="7.5" ry="7.5" fill="#FFDDAA" stroke-width="1.000000px" stroke="#000000" />
		<text x="22" y="31" text-anchor="middle" dominant-baseline="middle" font-family="Arial" font-size="10" fill="#000000">3</text>
	</g>
	<g>
		<ellipse cx="85" cy="57" rx="7.5" ry="7.5" fill="#FFDDAA" stroke-width="1.000000px" stroke="#000000" />
		<text x="85" y="57" text-anchor="middle" dominant-baseline="middle" font-family="Arial" font-size="10" fill="#000000">4</text>
	</g>
	<g>
		<ellipse cx="118" cy="84" rx="7.5" ry="7.5" fill="#FFDDAA" stroke-width="1.000000px" stroke="#000000" />
		<text x="118" y="84" text-anchor="middle" dominant-baseline="middle" font-family="Arial" font-size="10" fill="#000000">5</text>
	</g>
	<g>
		<ellipse cx="71" cy="96" rx="7.5" ry="7.5" fill="#FFDDAA" stroke-width="1.000000px" stroke="#000000" />
		<text x="71" y="96" text-anchor="middle" dominant-baseline="middle" font-family="Arial" font-size="10" fill="#000000">6</text>
	</g>
	<g>
		<ellipse cx="126" cy="45" rx="7.5" ry="7.5" fill="#FFDDAA" stroke-width="1.000000px" stroke="#000000" />
		<text x="126" y="45" text-anchor="middle" dominant-baseline="middle" font-family="Arial" font-size="10" fill="#000000">7</text>
	</g>
</svg>
